<svg width="14" height="75" viewBox="0 0 14 75" fill="none" xmlns="http://www.w3.org/2000/svg">
<path d="M6 5C6 4.44772 6.44772 4 7 4C7.55228 4 8 4.44772 8 5H6ZM8 8.84375C8 9.39603 7.55228 9.84375 7 9.84375C6.44772 9.84375 6 9.39603 6 8.84375H8ZM6 16.5312C6 15.979 6.44772 15.5312 7 15.5312C7.55228 15.5312 8 15.979 8 16.5312H6ZM8 24.2188C8 24.771 7.55228 25.2188 7 25.2188C6.44772 25.2188 6 24.771 6 24.2188H8ZM6 31.9062C6 31.354 6.44772 30.9062 7 30.9062C7.55228 30.9062 8 31.354 8 31.9062H6ZM8 40.1562C8 40.7085 7.55228 41.1562 7 41.1562C6.44772 41.1562 6 40.7085 6 40.1562H8ZM6 48.9688C6 48.4165 6.44772 47.9688 7 47.9688C7.55228 47.9688 8 48.4165 8 48.9688H6ZM8 57.7812C8 58.3335 7.55228 58.7812 7 58.7812C6.44772 58.7812 6 58.3335 6 57.7812H8ZM6 66.5938C6 66.0415 6.44772 65.5938 7 65.5938C7.55228 65.5938 8 66.0415 8 66.5938H6ZM8 5V8.84375H6V5H8ZM8 16.5312V24.2188H6V16.5312H8ZM8 31.9062V35.75H6V31.9062H8ZM8 35.75V40.1562H6V35.75H8ZM8 48.9688V57.7812H6V48.9688H8ZM8 66.5938V71H6V66.5938H8Z" fill="#DFE557"/>
<circle cx="7" cy="7" r="5.5" fill="#DFE557" stroke="#1C1D1D" stroke-width="3"/>
<circle cx="6.99982" cy="7.00001" r="1.81818" fill="#1C1D1D"/>
<circle cx="7" cy="68" r="5.5" fill="#DFE557" stroke="#1C1D1D" stroke-width="3"/>
<circle cx="6.99982" cy="68" r="1.81818" fill="#1C1D1D"/>
</svg>
