<svg width="338" height="84" viewBox="0 0 338 84" fill="none" xmlns="http://www.w3.org/2000/svg">
<path d="M329.5 9H330.5V8H329.5V9ZM15.475 10C16.0273 10 16.475 9.55228 16.475 9C16.475 8.44772 16.0273 8 15.475 8V10ZM23.425 8C22.8727 8 22.425 8.44772 22.425 9C22.425 9.55228 22.8727 10 23.425 10V8ZM31.375 10C31.9273 10 32.375 9.55228 32.375 9C32.375 8.44772 31.9273 8 31.375 8V10ZM39.325 8C38.7727 8 38.325 8.44772 38.325 9C38.325 9.55228 38.7727 10 39.325 10V8ZM47.275 10C47.8273 10 48.275 9.55228 48.275 9C48.275 8.44772 47.8273 8 47.275 8V10ZM55.225 8C54.6727 8 54.225 8.44772 54.225 9C54.225 9.55228 54.6727 10 55.225 10V8ZM63.175 10C63.7273 10 64.175 9.55228 64.175 9C64.175 8.44772 63.7273 8 63.175 8V10ZM71.125 8C70.5727 8 70.125 8.44772 70.125 9C70.125 9.55228 70.5727 10 71.125 10V8ZM79.075 10C79.6273 10 80.075 9.55228 80.075 9C80.075 8.44772 79.6273 8 79.075 8V10ZM87.025 8C86.4727 8 86.025 8.44772 86.025 9C86.025 9.55228 86.4727 10 87.025 10V8ZM94.975 10C95.5273 10 95.975 9.55228 95.975 9C95.975 8.44772 95.5273 8 94.975 8V10ZM102.925 8C102.373 8 101.925 8.44772 101.925 9C101.925 9.55228 102.373 10 102.925 10V8ZM110.875 10C111.427 10 111.875 9.55228 111.875 9C111.875 8.44772 111.427 8 110.875 8V10ZM118.825 8C118.273 8 117.825 8.44772 117.825 9C117.825 9.55228 118.273 10 118.825 10V8ZM126.775 10C127.327 10 127.775 9.55228 127.775 9C127.775 8.44772 127.327 8 126.775 8V10ZM134.725 8C134.173 8 133.725 8.44772 133.725 9C133.725 9.55228 134.173 10 134.725 10V8ZM142.675 10C143.227 10 143.675 9.55228 143.675 9C143.675 8.44772 143.227 8 142.675 8V10ZM150.625 8C150.073 8 149.625 8.44772 149.625 9C149.625 9.55228 150.073 10 150.625 10V8ZM158.575 10C159.127 10 159.575 9.55228 159.575 9C159.575 8.44772 159.127 8 158.575 8V10ZM166.525 8C165.973 8 165.525 8.44772 165.525 9C165.525 9.55228 165.973 10 166.525 10V8ZM174.475 10C175.027 10 175.475 9.55228 175.475 9C175.475 8.44772 175.027 8 174.475 8V10ZM182.425 8C181.873 8 181.425 8.44772 181.425 9C181.425 9.55228 181.873 10 182.425 10V8ZM190.375 10C190.927 10 191.375 9.55228 191.375 9C191.375 8.44772 190.927 8 190.375 8V10ZM198.325 8C197.773 8 197.325 8.44772 197.325 9C197.325 9.55228 197.773 10 198.325 10V8ZM206.275 10C206.827 10 207.275 9.55228 207.275 9C207.275 8.44772 206.827 8 206.275 8V10ZM214.225 8C213.673 8 213.225 8.44772 213.225 9C213.225 9.55228 213.673 10 214.225 10V8ZM222.175 10C222.727 10 223.175 9.55228 223.175 9C223.175 8.44772 222.727 8 222.175 8V10ZM230.125 8C229.573 8 229.125 8.44772 229.125 9C229.125 9.55228 229.573 10 230.125 10V8ZM238.075 10C238.627 10 239.075 9.55228 239.075 9C239.075 8.44772 238.627 8 238.075 8V10ZM246.025 8C245.473 8 245.025 8.44772 245.025 9C245.025 9.55228 245.473 10 246.025 10V8ZM253.975 10C254.527 10 254.975 9.55228 254.975 9C254.975 8.44772 254.527 8 253.975 8V10ZM261.925 8C261.373 8 260.925 8.44772 260.925 9C260.925 9.55228 261.373 10 261.925 10V8ZM269.875 10C270.427 10 270.875 9.55228 270.875 9C270.875 8.44772 270.427 8 269.875 8V10ZM277.825 8C277.273 8 276.825 8.44772 276.825 9C276.825 9.55228 277.273 10 277.825 10V8ZM285.775 10C286.327 10 286.775 9.55228 286.775 9C286.775 8.44772 286.327 8 285.775 8V10ZM293.725 8C293.173 8 292.725 8.44772 292.725 9C292.725 9.55228 293.173 10 293.725 10V8ZM301.675 10C302.227 10 302.675 9.55228 302.675 9C302.675 8.44772 302.227 8 301.675 8V10ZM309.625 8C309.073 8 308.625 8.44772 308.625 9C308.625 9.55228 309.073 10 309.625 10V8ZM317.575 10C318.127 10 318.575 9.55228 318.575 9C318.575 8.44772 318.127 8 317.575 8V10ZM325.525 8C324.973 8 324.525 8.44772 324.525 9C324.525 9.55228 324.973 10 325.525 10V8ZM328.5 12.8438C328.5 13.396 328.948 13.8438 329.5 13.8438C330.052 13.8438 330.5 13.396 330.5 12.8438H328.5ZM330.5 20.5312C330.5 19.979 330.052 19.5312 329.5 19.5312C328.948 19.5312 328.5 19.979 328.5 20.5312H330.5ZM328.5 28.2188C328.5 28.771 328.948 29.2188 329.5 29.2188C330.052 29.2188 330.5 28.771 330.5 28.2188H328.5ZM330.5 35.9062C330.5 35.354 330.052 34.9062 329.5 34.9062C328.948 34.9062 328.5 35.354 328.5 35.9062H330.5ZM328.5 44.1562C328.5 44.7085 328.948 45.1562 329.5 45.1562C330.052 45.1562 330.5 44.7085 330.5 44.1562H328.5ZM330.5 52.9688C330.5 52.4165 330.052 51.9688 329.5 51.9688C328.948 51.9688 328.5 52.4165 328.5 52.9688H330.5ZM328.5 61.7812C328.5 62.3335 328.948 62.7812 329.5 62.7812C330.052 62.7812 330.5 62.3335 330.5 61.7812H328.5ZM330.5 70.5938C330.5 70.0415 330.052 69.5938 329.5 69.5938C328.948 69.5938 328.5 70.0415 328.5 70.5938H330.5ZM11.5 10H15.475V8H11.5V10ZM23.425 10H31.375V8H23.425V10ZM39.325 10H47.275V8H39.325V10ZM55.225 10H63.175V8H55.225V10ZM71.125 10H79.075V8H71.125V10ZM87.025 10H94.975V8H87.025V10ZM102.925 10H110.875V8H102.925V10ZM118.825 10H126.775V8H118.825V10ZM134.725 10H142.675V8H134.725V10ZM150.625 10H158.575V8H150.625V10ZM166.525 10H174.475V8H166.525V10ZM182.425 10H190.375V8H182.425V10ZM198.325 10H206.275V8H198.325V10ZM214.225 10H222.175V8H214.225V10ZM230.125 10H238.075V8H230.125V10ZM246.025 10H253.975V8H246.025V10ZM261.925 10H269.875V8H261.925V10ZM277.825 10H285.775V8H277.825V10ZM293.725 10H301.675V8H293.725V10ZM309.625 10H317.575V8H309.625V10ZM325.525 10H329.5V8H325.525V10ZM328.5 9V12.8438H330.5V9H328.5ZM328.5 20.5312V28.2188H330.5V20.5312H328.5ZM328.5 35.9062V39.75H330.5V35.9062H328.5ZM328.5 39.75V44.1562H330.5V39.75H328.5ZM328.5 52.9688V61.7812H330.5V52.9688H328.5ZM328.5 70.5938V75H330.5V70.5938H328.5Z" fill="#DFE557"/>
<circle r="7" transform="matrix(-1 0 0 1 329 75.5)" fill="#DFE557" stroke="#1C1D1D" stroke-width="3"/>
<circle r="2.5" transform="matrix(-1 0 0 1 329 75.5)" fill="#1C1D1D"/>
<circle cx="8.5" cy="8.5" r="7" fill="#DFE557" stroke="#1C1D1D" stroke-width="3"/>
<circle cx="8.5" cy="8.5" r="2.5" fill="#1C1D1D"/>
</svg>
