<svg width="336" height="83" viewBox="0 0 336 83" fill="none" xmlns="http://www.w3.org/2000/svg">
<path d="M9 9H8V8L9 8L9 9ZM326.975 10C326.423 10 325.975 9.55228 325.975 9C325.975 8.44772 326.423 8 326.975 8L326.975 10ZM318.925 8C319.477 8 319.925 8.44772 319.925 9C319.925 9.55228 319.477 10 318.925 10L318.925 8ZM310.875 10C310.323 10 309.875 9.55228 309.875 9C309.875 8.44772 310.323 8 310.875 8L310.875 10ZM302.825 8C303.377 8 303.825 8.44772 303.825 9C303.825 9.55228 303.377 10 302.825 10L302.825 8ZM294.775 10C294.223 10 293.775 9.55228 293.775 9C293.775 8.44772 294.223 8 294.775 8L294.775 10ZM286.725 8C287.277 8 287.725 8.44772 287.725 9C287.725 9.55228 287.277 10 286.725 10L286.725 8ZM278.675 10C278.123 10 277.675 9.55228 277.675 9C277.675 8.44772 278.123 8 278.675 8L278.675 10ZM270.625 8C271.177 8 271.625 8.44772 271.625 9C271.625 9.55228 271.177 10 270.625 10L270.625 8ZM262.575 10C262.023 10 261.575 9.55228 261.575 9C261.575 8.44772 262.023 8 262.575 8L262.575 10ZM254.525 8C255.077 8 255.525 8.44772 255.525 9C255.525 9.55228 255.077 10 254.525 10L254.525 8ZM246.475 10C245.923 10 245.475 9.55228 245.475 9C245.475 8.44772 245.923 8 246.475 8L246.475 10ZM238.425 8C238.977 8 239.425 8.44772 239.425 9C239.425 9.55228 238.977 10 238.425 10L238.425 8ZM230.375 10C229.823 10 229.375 9.55228 229.375 9C229.375 8.44772 229.823 8 230.375 8L230.375 10ZM222.325 8C222.877 8 223.325 8.44772 223.325 9C223.325 9.55228 222.877 10 222.325 10L222.325 8ZM214.275 10C213.723 10 213.275 9.55228 213.275 9C213.275 8.44772 213.723 8 214.275 8L214.275 10ZM206.225 8C206.777 8 207.225 8.44772 207.225 9C207.225 9.55228 206.777 10 206.225 10L206.225 8ZM198.175 10C197.623 10 197.175 9.55228 197.175 9C197.175 8.44772 197.623 8 198.175 8L198.175 10ZM190.125 8C190.677 8 191.125 8.44772 191.125 9C191.125 9.55228 190.677 10 190.125 10L190.125 8ZM182.075 10C181.523 10 181.075 9.55228 181.075 9C181.075 8.44772 181.523 8 182.075 8L182.075 10ZM174.025 8C174.577 8 175.025 8.44772 175.025 9C175.025 9.55228 174.577 10 174.025 10L174.025 8ZM165.975 10C165.423 10 164.975 9.55228 164.975 9C164.975 8.44772 165.423 8 165.975 8L165.975 10ZM157.925 8C158.477 8 158.925 8.44772 158.925 9C158.925 9.55228 158.477 10 157.925 10L157.925 8ZM149.875 10C149.323 10 148.875 9.55228 148.875 9C148.875 8.44772 149.323 8 149.875 8L149.875 10ZM141.825 8C142.377 8 142.825 8.44772 142.825 9C142.825 9.55228 142.377 10 141.825 10L141.825 8ZM133.775 10C133.223 10 132.775 9.55228 132.775 9C132.775 8.44772 133.223 8 133.775 8L133.775 10ZM125.725 8C126.277 8 126.725 8.44772 126.725 9C126.725 9.55228 126.277 10 125.725 10L125.725 8ZM117.675 10C117.123 10 116.675 9.55228 116.675 9C116.675 8.44772 117.123 8 117.675 8L117.675 10ZM109.625 8C110.177 8 110.625 8.44772 110.625 9C110.625 9.55228 110.177 10 109.625 10L109.625 8ZM101.575 10C101.023 10 100.575 9.55228 100.575 9C100.575 8.44772 101.023 8 101.575 8L101.575 10ZM93.5249 8C94.0772 8 94.5249 8.44772 94.5249 9C94.5249 9.55228 94.0772 10 93.5249 10L93.5249 8ZM85.4749 10C84.9227 10 84.4749 9.55228 84.4749 9C84.4749 8.44772 84.9227 8 85.4749 8L85.4749 10ZM77.4249 8C77.9772 8 78.4249 8.44772 78.4249 9C78.4249 9.55228 77.9772 10 77.4249 10L77.4249 8ZM69.3749 10C68.8227 10 68.3749 9.55228 68.3749 9C68.3749 8.44772 68.8227 8 69.3749 8L69.3749 10ZM61.325 8C61.8772 8 62.325 8.44772 62.325 9C62.325 9.55228 61.8772 10 61.325 10L61.325 8ZM53.275 10C52.7227 10 52.275 9.55228 52.275 9C52.275 8.44772 52.7227 8 53.275 8L53.275 10ZM45.225 8C45.7773 8 46.225 8.44772 46.225 9C46.225 9.55228 45.7773 10 45.225 10L45.225 8ZM37.175 10C36.6227 10 36.175 9.55228 36.175 9C36.175 8.44772 36.6227 8 37.175 8L37.175 10ZM29.125 8C29.6773 8 30.125 8.44772 30.125 9C30.125 9.55228 29.6773 10 29.125 10L29.125 8ZM21.075 10C20.5227 10 20.075 9.55228 20.075 9C20.075 8.44772 20.5227 8 21.075 8L21.075 10ZM13.025 8C13.5773 8 14.025 8.44772 14.025 9C14.025 9.55228 13.5773 10 13.025 10L13.025 8ZM10 12.8438C10 13.396 9.55228 13.8438 9 13.8438C8.44772 13.8438 8 13.396 8 12.8438H10ZM8 20.5313C8 19.979 8.44772 19.5313 9 19.5313C9.55228 19.5313 10 19.979 10 20.5313H8ZM10 28.2188C10 28.771 9.55228 29.2188 9 29.2188C8.44772 29.2188 8 28.771 8 28.2188H10ZM8 35.9063C8 35.354 8.44772 34.9063 9 34.9063C9.55228 34.9063 10 35.354 10 35.9063H8ZM10 44.1562C10 44.7085 9.55228 45.1562 9 45.1562C8.44772 45.1562 8 44.7085 8 44.1562H10ZM8 52.9688C8 52.4165 8.44772 51.9688 9 51.9688C9.55228 51.9688 10 52.4165 10 52.9688H8ZM10 61.7812C10 62.3335 9.55228 62.7812 9 62.7812C8.44772 62.7812 8 62.3335 8 61.7812H10ZM8 70.5938C8 70.0415 8.44772 69.5938 9 69.5938C9.55228 69.5938 10 70.0415 10 70.5938H8ZM331 10L326.975 10L326.975 8L331 8L331 10ZM318.925 10L310.875 10L310.875 8L318.925 8L318.925 10ZM302.825 10L294.775 10L294.775 8L302.825 8L302.825 10ZM286.725 10L278.675 10L278.675 8L286.725 8L286.725 10ZM270.625 10L262.575 10L262.575 8L270.625 8L270.625 10ZM254.525 10L246.475 10L246.475 8L254.525 8L254.525 10ZM238.425 10L230.375 10L230.375 8L238.425 8L238.425 10ZM222.325 10L214.275 10L214.275 8L222.325 8L222.325 10ZM206.225 10L198.175 10L198.175 8L206.225 8L206.225 10ZM190.125 10L182.075 10L182.075 8L190.125 8L190.125 10ZM174.025 10L165.975 10L165.975 8L174.025 8L174.025 10ZM157.925 10L149.875 10L149.875 8L157.925 8L157.925 10ZM141.825 10L133.775 10L133.775 8L141.825 8L141.825 10ZM125.725 10L117.675 10L117.675 8L125.725 8L125.725 10ZM109.625 10L101.575 10L101.575 8L109.625 8L109.625 10ZM93.5249 10L85.4749 10L85.4749 8L93.5249 8L93.5249 10ZM77.4249 10L69.3749 10L69.3749 8L77.4249 8L77.4249 10ZM61.325 10L53.275 10L53.275 8L61.325 8L61.325 10ZM45.225 10L37.175 10L37.175 8L45.225 8L45.225 10ZM29.125 10L21.075 10L21.075 8L29.125 8L29.125 10ZM13.025 10L9 10L9 8L13.025 8L13.025 10ZM10 9V12.8438H8V9H10ZM10 20.5313V28.2188H8V20.5313H10ZM10 35.9063V39.75H8V35.9063H10ZM10 39.75V44.1562H8V39.75H10ZM10 52.9688V61.7812H8V52.9688H10ZM10 70.5938V75H8V70.5938H10Z" fill="#DFE557"/>
<circle cx="327.5" cy="8.5" r="7" fill="#DFE557" stroke="#1C1D1D" stroke-width="3"/>
<circle cx="8.5" cy="74.5" r="7" fill="#DFE557" stroke="#1C1D1D" stroke-width="3"/>
<circle cx="8.5" cy="74.5" r="2.5" fill="#1C1D1D"/>
<circle cx="327.5" cy="8.5" r="2.5" fill="#1C1D1D"/>
</svg>
