<svg width="28" height="22" viewBox="0 0 28 22" fill="none" xmlns="http://www.w3.org/2000/svg">
<path d="M24.12 2.94632C21.696 0.998319 17.863 0.668318 17.701 0.654318C17.445 0.632318 17.202 0.777319 17.097 1.01132C17.093 1.01932 16.879 1.64032 16.672 2.23932C19.489 2.73232 21.403 3.82632 21.505 3.88632C21.983 4.16432 22.143 4.77732 21.864 5.25432C21.679 5.57232 21.344 5.75032 21 5.75032C20.829 5.75032 20.657 5.70732 20.499 5.61532C20.471 5.59832 17.663 4.00032 14.002 4.00032C10.34 4.00032 7.531 5.59932 7.503 5.61532C7.026 5.89232 6.414 5.72932 6.137 5.25132C5.86 4.77532 6.021 4.16432 6.497 3.88632C6.599 3.82632 8.52 2.72832 11.345 2.23632C11.127 1.63032 10.907 1.01932 10.903 1.01132C10.798 0.776319 10.555 0.628318 10.299 0.654318C10.137 0.667318 6.304 0.997319 3.848 2.97232C2.564 4.15832 0 11.0923 0 17.0873C0 17.1933 0.027 17.2963 0.08 17.3883C1.851 20.4983 6.679 21.3123 7.779 21.3473C7.786 21.3483 7.792 21.3483 7.798 21.3483C7.992 21.3483 8.175 21.2553 8.29 21.0983L9.48 19.4863C6.87 18.8573 5.49 17.8683 5.407 17.8073C4.963 17.4803 4.867 16.8543 5.194 16.4093C5.52 15.9663 6.144 15.8683 6.588 16.1933C6.625 16.2173 9.172 18.0003 14 18.0003C18.847 18.0003 21.387 16.2103 21.412 16.1923C21.856 15.8703 22.482 15.9673 22.807 16.4133C23.131 16.8573 23.037 17.4793 22.595 17.8053C22.512 17.8663 21.139 18.8533 18.535 19.4823L19.71 21.0973C19.825 21.2553 20.008 21.3473 20.202 21.3473C20.209 21.3473 20.215 21.3473 20.221 21.3463C21.322 21.3113 26.15 20.4973 27.92 17.3873C27.973 17.2953 28 17.1923 28 17.0863C28 11.0923 25.436 4.15832 24.12 2.94632ZM10 15.0003C8.895 15.0003 8 13.8813 8 12.5003C8 11.1193 8.895 10.0003 10 10.0003C11.105 10.0003 12 11.1193 12 12.5003C12 13.8813 11.105 15.0003 10 15.0003ZM18 15.0003C16.895 15.0003 16 13.8813 16 12.5003C16 11.1193 16.895 10.0003 18 10.0003C19.105 10.0003 20 11.1193 20 12.5003C20 13.8813 19.105 15.0003 18 15.0003Z" fill="white"/>
</svg>
